<svg xmlns="http://www.w3.org/2000/svg" viewBox="0 0 200 200">
  <defs>
    <linearGradient id="bg" x1="0%" y1="0%" x2="100%" y2="100%">
      <stop offset="0%" style="stop-color:#f7a8a8"/>
      <stop offset="100%" style="stop-color:#e96c6c"/>
    </linearGradient>
  </defs>
  <rect width="200" height="200" rx="40" ry="40" fill="url(#bg)"/>
  <!-- Store building -->
  <rect x="50" y="85" width="80" height="65" rx="3" fill="#fff5f0" stroke="#c0704a" stroke-width="3"/>
  <!-- Roof/awning stripes -->
  <path d="M38 88 Q100 68 162 88 L155 105 Q100 90 45 105 Z" fill="#ff6b6b"/>
  <path d="M50 91 Q100 74 150 91" fill="none" stroke="#fff" stroke-width="6"/>
  <path d="M58 88 Q100 73 142 88" fill="none" stroke="#ff6b6b" stroke-width="4" stroke-dasharray="8,8"/>
  <!-- Door -->
  <rect x="85" y="118" width="30" height="32" rx="3" fill="#c0704a"/>
  <circle cx="91" cy="134" r="2.5" fill="#fff"/>
  <!-- Window -->
  <rect x="55" y="100" width="22" height="20" rx="2" fill="#aedff7" stroke="#c0704a" stroke-width="2"/>
  <line x1="66" y1="100" x2="66" y2="120" stroke="#c0704a" stroke-width="1.5"/>
  <line x1="55" y1="110" x2="77" y2="110" stroke="#c0704a" stroke-width="1.5"/>
  <!-- Shopping bag -->
  <rect x="124" y="115" width="30" height="35" rx="4" fill="#f5c994" stroke="#c0704a" stroke-width="2.5"/>
  <path d="M131 115 Q131 105 139 105 Q147 105 147 115" fill="none" stroke="#c0704a" stroke-width="2.5"/>
</svg>
